<?xml version="1.0" encoding="UTF-8"?>
<svg width="24" height="24" viewBox="0 0 24 24" fill="none" xmlns="http://www.w3.org/2000/svg">
  <path d="M12 2C6.477 2 2 6.477 2 12C2 17.523 6.477 22 12 22C17.523 22 22 17.523 22 12C22 6.477 17.523 2 12 2ZM12 20C7.582 20 4 16.418 4 12C4 7.582 7.582 4 12 4C16.418 4 20 7.582 20 12C20 16.418 16.418 20 12 20Z" fill="#C5050C"/>
  <path d="M8 13C8.82843 13 9.5 12.3284 9.5 11.5C9.5 10.6716 8.82843 10 8 10C7.17157 10 6.5 10.6716 6.5 11.5C6.5 12.3284 7.17157 13 8 13Z" fill="#C5050C"/>
  <path d="M12 13C12.8284 13 13.5 12.3284 13.5 11.5C13.5 10.6716 12.8284 10 12 10C11.1716 10 10.5 10.6716 10.5 11.5C10.5 12.3284 11.1716 13 12 13Z" fill="#C5050C"/>
  <path d="M16 13C16.8284 13 17.5 12.3284 17.5 11.5C17.5 10.6716 16.8284 10 16 10C15.1716 10 14.5 10.6716 14.5 11.5C14.5 12.3284 15.1716 13 16 13Z" fill="#C5050C"/>
  <path d="M12 16C9.5 16 8.5 14.5 8 14H6C6.5 16.5 9 18 12 18C15 18 17.5 16.5 18 14H16C15.5 14.5 14.5 16 12 16Z" fill="#C5050C"/>
</svg> 